# xmcd
#
# Track frame offsets:
#	150
#	31155
#	52480
#	80068
#	105674
#	130077
#	149174
#	169672
#	195176
#
# Disc length: 2925 seconds
#
# Revision: 2
# Processed by: cddbd v1.5.2PL0 Copyright (c) Steve Scherf et al.
# Submitted via: audiograbber 1.83.01
#
DISCID=7e0b6b09
DTITLE=Bob Dylan - The Bootleg Series Vol. 13 1979-1981 Deluxe Edition: Trouble
DTITLE=No More [CD 5) - "Best Of" Live in Toronto 1980
DYEAR=2017
DGENRE=Rock
TTITLE0=Gotta Serve Somebody [live at Massey Hall - April 18, 1980]
TTITLE1=I Believe In You [live at Massey Hall - April 18, 1980]
TTITLE2=Covenant Woman [live at Massey Hall - April 19, 1980]
TTITLE3=When You Gonna Wake Up? [live at Massey Hall - April 18, 1980]
TTITLE4=When He Returns [live at Massey Hall - April 20, 1980]
TTITLE5=Ain't Gonna Go To Hell For Anybody [live at Massey Hall - April 18, 198
TTITLE5=0]
TTITLE6=Cover Down, Pray Through [live at Massey Hall - April 19, 1980]
TTITLE7=Man Gave Names To All The Animals [live at Massey Hall - April 19, 1980
TTITLE7=]
TTITLE8=Precious Angel [live at Massey Hall - April 19, 1980]
EXTD=
EXTT0=
EXTT1=
EXTT2=
EXTT3=
EXTT4=
EXTT5=
EXTT6=
EXTT7=
EXTT8=
PLAYORDER=
